Coordinates
version=1
nRows=15
nColumns=46
inDegrees=yes

Units are S.I. units (second, meters, Newtons, ...)
Angles are in degrees.

endheader
time	pelvis_tilt	pelvis_list	pelvis_rotation	pelvis_tx	pelvis_ty	pelvis_tz	bb_angle	bb_tx	bb_ty	bb_tz	hip_flexion_r	hip_adduction_r	hip_rotation_r	knee_angle_r	knee_angle_r_beta	ankle_angle_r	subtalar_angle_r	mtp_angle_r	crank_angle_r	hip_flexion_l	hip_adduction_l	hip_rotation_l	knee_angle_l	knee_angle_l_beta	ankle_angle_l	subtalar_angle_l	mtp_angle_l	crank_angle_l	lumbar_extension	lumbar_bending	lumbar_rotation	arm_flex_r	arm_add_r	arm_rot_r	elbow_flex_r	pro_sup_r	wrist_flex_r	wrist_dev_r	arm_flex_l	arm_add_l	arm_rot_l	elbow_flex_l	pro_sup_l	wrist_flex_l	wrist_dev_l
      2.50500000	    -17.98715168	      1.41010132	      4.30412662	      0.33625502	      1.11580997	     -0.23967038	      0.00000000	      0.50000000	      0.00000000	      0.25000000	     44.65426380	     -5.92396202	     -2.71377123	     48.72105170	      0.85034277	     -1.17593164	    -15.12673640	      0.00000000	      0.00000000	     61.53702278	     -2.90442397	      5.31632134	    103.98915746	      1.81495318	     -7.71506400	     -7.25954642	      0.00000000	      0.00000000	    -59.34558731	      8.78825357	     -1.73802502	     51.36170808	    -10.93300265	     22.49729657	     76.04435899	     49.03235281	      0.00000000	      0.00000000	     52.12456260	    -21.46800506	     21.28688503	     67.92220426	     47.23204331	      0.00000000	      0.00000000
      2.51000000	    -17.72165538	      1.62280510	      4.42353470	      0.33703217	      1.11465731	     -0.23991983	      0.00000000	      0.50000000	      0.00000000	      0.25000000	     43.77275402	     -6.20113140	     -2.84256628	     48.09931328	      0.83949138	     -1.69572554	    -14.90437927	      0.00000000	      0.00000000	     62.05181782	     -2.70757549	      5.24978194	    105.10513993	      1.83443075	     -7.38171837	     -7.29345669	      0.00000000	      0.00000000	    -59.18639990	      8.48758315	     -2.02112417	     50.95142748	    -11.07238450	     22.46271249	     75.88020873	     49.02311155	      0.00000000	      0.00000000	     52.05227923	    -21.38097830	     21.39131908	     67.87099609	     47.24440564	      0.00000000	      0.00000000
      2.51500000	    -17.40860044	      1.77842175	      4.56472907	      0.33778532	      1.11371239	     -0.24027795	      0.00000000	      0.50000000	      0.00000000	      0.25000000	     42.82789661	     -6.47822907	     -3.12215236	     47.46647422	      0.82844626	     -2.40080341	    -14.73284356	      0.00000000	      0.00000000	     62.52612388	     -2.49450778	      5.26900887	    106.20421634	      1.85361325	     -6.89752590	     -7.16351380	      0.00000000	      0.00000000	    -59.11839960	      8.22547202	     -2.24759396	     50.62204051	    -11.17946136	     22.30426019	     75.57674600	     48.98782025	      0.00000000	      0.00000000	     52.02587256	    -21.20637284	     21.61694770	     67.68881727	     47.25233455	      0.00000000	      0.00000000
      2.52000000	    -17.08874346	      1.88227123	      4.68197655	      0.33850392	      1.11300497	     -0.24050049	      0.00000000	      0.50000000	      0.00000000	      0.25000000	     41.81954231	     -6.60723300	     -3.28934464	     46.73407182	      0.81566343	     -3.16861607	    -14.83414482	      0.00000000	      0.00000000	     62.97321347	     -2.37237156	      5.31699422	    107.23893973	      1.87167258	     -6.29976972	     -6.78253221	      0.00000000	      0.00000000	    -59.01809520	      7.93420240	     -2.32179229	     50.32828107	    -11.15877498	     21.80119185	     74.92609973	     48.94084488	      0.00000000	      0.00000000	     52.35602157	    -20.99571862	     22.31972887	     66.92458460	     47.25444865	      0.00000000	      0.00000000
      2.52500000	    -16.85664032	      2.02379648	      4.83285032	      0.33920391	      1.11241390	     -0.24092275	      0.00000000	      0.50000000	      0.00000000	      0.25000000	     40.91431665	     -6.84837181	     -3.54598131	     46.02343242	      0.80326043	     -3.90144593	    -14.62603272	      0.00000000	      0.00000000	     63.48612930	     -2.14914288	      5.31183022	    108.20506757	      1.88853470	     -5.83025117	     -6.74527252	      0.00000000	      0.00000000	    -58.88774508	      7.65915670	     -2.51914368	     50.01949993	    -11.27372612	     21.56508408	     74.50570346	     48.93225030	      0.00000000	      0.00000000	     52.47440740	    -20.84007561	     22.73304780	     66.55975727	     47.28043142	      0.00000000	      0.00000000
      2.53000000	    -16.73936303	      2.22021793	      4.94660610	      0.33986383	      1.11184588	     -0.24132235	      0.00000000	      0.50000000	      0.00000000	      0.25000000	     40.13542171	     -7.11394444	     -3.69234664	     45.32306423	      0.79103670	     -4.59450985	    -14.35831277	      0.00000000	      0.00000000	     64.09389147	     -1.90972031	      5.21384809	    109.11227846	      1.90436851	     -5.33837792	     -6.82653878	      0.00000000	      0.00000000	    -58.67965331	      7.31457195	     -2.82137106	     49.67595073	    -11.41187162	     21.50487143	     74.28126648	     48.91063496	      0.00000000	      0.00000000	     52.40028231	    -20.77514632	     22.86875141	     66.48937342	     47.29241938	      0.00000000	      0.00000000
      2.53500000	    -16.51760239	      2.26884195	      5.10661415	      0.34049041	      1.11173889	     -0.24168422	      0.00000000	      0.50000000	      0.00000000	      0.25000000	     39.16555378	     -7.23355609	     -3.96488539	     44.50350880	      0.77673276	     -5.49993842	    -14.52957140	      0.00000000	      0.00000000	     64.60003296	     -1.72998030	      5.26490988	    109.93900472	      1.91879761	     -5.04788725	     -6.65349572	      0.00000000	      0.00000000	    -58.61477058	      7.07432611	     -2.96915087	     49.47233692	    -11.42461236	     21.19514112	     73.72334124	     48.79016831	      0.00000000	      0.00000000	     52.47667235	    -20.60770891	     23.17954856	     66.23631998	     47.26499340	      0.00000000	      0.00000000
      2.54000000	    -16.49385874	      2.44348752	      5.21644979	      0.34106827	      1.11154239	     -0.24209220	      0.00000000	      0.50000000	      0.00000000	      0.25000000	     38.42836614	     -7.46808331	     -4.17398452	     43.70833261	      0.76285431	     -6.21719996	    -14.16156990	      0.00000000	      0.00000000	     65.27953619	     -1.45758790	      5.19194885	    110.70920427	      1.93224013	     -4.59608304	     -6.76557558	      0.00000000	      0.00000000	    -58.40107654	      6.70511366	     -3.28186415	     49.19015849	    -11.54789752	     21.15735109	     73.48703974	     48.76472481	      0.00000000	      0.00000000	     52.48058392	    -20.54779685	     23.32272230	     66.17719347	     47.27607281	      0.00000000	      0.00000000
      2.54500000	    -16.46660480	      2.57886495	      5.34520605	      0.34159196	      1.11166629	     -0.24252557	      0.00000000	      0.50000000	      0.00000000	      0.25000000	     37.68290060	     -7.68787038	     -4.43133165	     42.88477874	      0.74848059	     -7.11595453	    -13.89065439	      0.00000000	      0.00000000	     65.91651062	     -1.19248154	      5.13763617	    111.39473204	      1.94420484	     -4.03758784	     -6.84280310	      0.00000000	      0.00000000	    -58.23372746	      6.38541636	     -3.54656681	     48.96392482	    -11.66235118	     21.09310078	     73.19479173	     48.72629271	      0.00000000	      0.00000000	     52.49487850	    -20.45155097	     23.49571843	     66.11281549	     47.28843581	      0.00000000	      0.00000000
      2.55000000	    -16.25494223	      2.52103956	      5.53422780	      0.34212826	      1.11239680	     -0.24295915	      0.00000000	      0.50000000	      0.00000000	      0.25000000	     36.59403233	     -7.69333397	     -4.80929060	     41.78749397	      0.72932936	     -8.50384199	    -14.17623644	      0.00000000	      0.00000000	     66.38336980	     -1.00313640	      5.32472458	    112.03104374	      1.95531058	     -3.40412534	     -6.57453248	      0.00000000	      0.00000000	    -58.29424400	      6.24898681	     -3.58511470	     49.00427934	    -11.63531170	     20.81347482	     72.20717462	     48.59903669	      0.00000000	      0.00000000	     52.80559771	    -20.26632058	     24.12980606	     65.62115755	     47.29568232	      0.00000000	      0.00000000
      2.55500000	    -16.35191013	      2.67089291	      5.60802039	      0.34259548	      1.11297493	     -0.24331301	      0.00000000	      0.50000000	      0.00000000	      0.25000000	     35.92364420	     -7.90217916	     -5.02770916	     40.82318192	      0.71249894	     -9.46121008	    -13.68098927	      0.00000000	      0.00000000	     67.09357463	     -0.76957329	      5.19731204	    112.54577716	      1.96429437	     -2.91696840	     -6.68421819	      0.00000000	      0.00000000	    -58.07758589	      5.82090118	     -3.86481531	     48.82858781	    -11.72169011	     20.73894136	     71.94094378	     48.56716470	      0.00000000	      0.00000000	     52.88618091	    -20.18401094	     24.28686163	     65.54178341	     47.30458143	      0.00000000	      0.00000000
      2.56000000	    -16.20649462	      2.70361790	      5.71579862	      0.34321088	      1.11426385	     -0.24361439	      0.00000000	      0.50000000	      0.00000000	      0.25000000	     34.85739882	     -7.97349255	     -5.39645134	     39.62899719	      0.69165648	    -10.74258717	    -13.58726861	      0.00000000	      0.00000000	     67.51990186	     -0.56659614	      5.29356482	    113.01533942	      1.97248978	     -1.69053058	     -6.47996490	      0.00000000	      0.00000000	    -58.15411691	      5.52466112	     -3.94710420	     48.84835157	    -11.71272968	     20.41880960	     71.15236092	     48.45762042	      0.00000000	      0.00000000	     53.16630150	    -19.96251379	     24.74309608	     65.18312959	     47.30911999	      0.00000000	      0.00000000
      2.56500000	    -16.26388607	      2.79460402	      5.83973169	      0.34366667	      1.11551535	     -0.24405030	      0.00000000	      0.50000000	      0.00000000	      0.25000000	     34.01986720	     -8.15513564	     -5.73532953	     38.45760773	      0.67121188	    -11.85469518	    -13.13773019	      0.00000000	      0.00000000	     68.15775497	     -0.31044017	      5.23839489	    113.36939215	      1.97866916	     -1.41184280	     -6.42359491	      0.00000000	      0.00000000	    -58.07956419	      5.20150204	     -4.13664775	     48.81501588	    -11.68898527	     20.13496949	     70.54943947	     48.38235814	      0.00000000	      0.00000000	     53.45171926	    -19.78616869	     25.09986697	     64.84346311	     47.30611279	      0.00000000	      0.00000000
      2.57000000	    -16.51540345	      2.95376576	      5.87230728	      0.34398795	      1.11673801	     -0.24443391	      0.00000000	      0.50000000	      0.00000000	      0.25000000	     33.43938943	     -8.38650867	     -5.95751181	     37.31941679	      0.65134670	    -12.85300439	    -12.41051072	      0.00000000	      0.00000000	     68.97055957	     -0.07873849	      5.04341587	    113.62552095	      1.98313945	     -1.24056951	     -6.39364208	      0.00000000	      0.00000000	    -57.89103643	      4.73883378	     -4.41669450	     48.72887275	    -11.77517785	     20.02362717	     70.32951228	     48.34942813	      0.00000000	      0.00000000	     53.64184431	    -19.68607828	     25.18911251	     64.82212779	     47.31389795	      0.00000000	      0.00000000
      2.57500000	    -16.40413905	      2.98461374	      6.02135975	      0.34454338	      1.11880820	     -0.24510612	      0.00000000	      0.50000000	      0.00000000	      0.25000000	     32.31729860	     -8.57614151	     -6.58753891	     35.96120391	      0.62764141	    -14.31118521	    -11.91562054	      0.00000000	      0.00000000	     69.36219344	      0.17209342	      5.01606055	    113.83277529	      1.98675673	     -0.87220312	     -6.46662291	      0.00000000	      0.00000000	    -58.05760875	      4.50477285	     -4.50693496	     48.84810537	    -11.72077097	     19.48894105	     69.41877331	     48.20533215	      0.00000000	      0.00000000	     54.05079419	    -19.32668742	     25.64134864	     64.37907180	     47.30299612	      0.00000000	      0.00000000
